# xmcd
#
# Track frame offsets:
#	150
#	11235
#	18167
#	23677
#	30885
#	41460
#	59415
#	61420
#	69387
#	73377
#	76920
#	85622
#	109915
#	122877
#	142555
#	153145
#	166817
#	179000
#	192442
#	203327
#	215337
#	226665
#	243377
#	254997
#	269317
#
# Disc length: 3754 seconds
#
# Revision: 1
# Processed by: cddbd v1.5.2PL0 Copyright (c) Steve Scherf et al.
# Submitted via: audiograbber 1.83.01
#
DISCID=4b0ea819
DTITLE=Willie Nelson - Red Headed Stranger/To Lefty from Willie
DYEAR=1900
DGENRE=Country
TTITLE0=Time Of The Preacher
TTITLE1=I Couldn't Believe It Was True
TTITLE2=Time Of The Preacher Theme
TTITLE3=Blue Rock Montana/Red Headed Stranger
TTITLE4=Blue Eyes Crying In The Rain
TTITLE5=Red Headed Stranger
TTITLE6=Time Of The Preacher Theme
TTITLE7=Just As I Am
TTITLE8=Denver
TTITLE9=O'er The Waves
TTITLE10=Down Yonder
TTITLE11=Can I Sleep In Your Arms
TTITLE12=Remember Me (When the Candle Lights Are Gleaming)
TTITLE13=Hands On The Wheel
TTITLE14=Bandera
TTITLE15=Mom And Dad's Waltz
TTITLE16=Look What Thoughts Will Do
TTITLE17=I Love You A Thousand Ways
TTITLE18=Always Late (With Your Kisses)
TTITLE19=I Want To Be With You Always
TTITLE20=She's Gone, Gone, Gone
TTITLE21=A Little Unfair
TTITLE22=I Never Go Round Mirrors
TTITLE23=That's The Way Love Goes
TTITLE24=Railroad Lady
EXTD=Red Headed Stranger ['75] 1-15 - To Lefty from Willie ['77] 16-25
EXTT0=
EXTT1=
EXTT2=
EXTT3=
EXTT4=
EXTT5=
EXTT6=
EXTT7=
EXTT8=
EXTT9=
EXTT10=
EXTT11=
EXTT12=
EXTT13=
EXTT14=
EXTT15=
EXTT16=
EXTT17=
EXTT18=
EXTT19=
EXTT20=
EXTT21=
EXTT22=
EXTT23=
EXTT24=
PLAYORDER=
